<svg width="20px" height="20px" viewBox="0 0 20 20" version="1.1" xmlns="http://www.w3.org/2000/svg" xmlns:xlink="http://www.w3.org/1999/xlink">
    <g id="dribbble-icon" stroke="none" stroke-width="1" fill="none" fill-rule="evenodd">
        <g>
            <rect id="Rectangle-Copy-4" fill-opacity="0" fill="#D8D8D8" x="0" y="0" width="20" height="20"/>
            <path class="social-icon-color" d="M15.95125,5.15125 C15.788125,5.3695 14.5,7.021 11.65825,8.180875 C11.83825,8.547625 12.00925,8.92 12.167875,9.294625 L12.334375,9.69175 C14.8915,9.37 17.434,9.88525 17.687125,9.93925 C17.67025,8.124625 17.021125,6.4585 15.95125,5.150125 M8.2,2.53675 C8.4115,2.821375 9.80875,4.722625 11.0665,7.03675 C13.80025,6.013 14.959,4.457125 15.09625,4.26025 C13.738375,3.05425 11.953,2.321875 10,2.321875 C9.38125,2.321875 8.776,2.396125 8.2,2.535625 M2.47375,8.43625 C2.819125,8.441875 5.986,8.455375 9.58375,7.50025 C8.308,5.235625 6.934375,3.332125 6.731875,3.05425 C4.580875,4.069 2.974375,6.05125 2.474875,8.437375 M4.290625,15.153625 C4.463875,14.854375 6.574375,11.362375 10.538875,10.079875 C10.640125,10.046125 10.741375,10.016875 10.842625,9.987625 C10.649125,9.55225 10.437625,9.114625 10.21825,8.682625 C6.37975,9.832375 2.654875,9.785125 2.3185,9.778375 L2.315125,10.012375 C2.315125,11.98675 3.06325,13.789 4.290625,15.153625 M13.004875,17.088625 C12.890125,16.413625 12.442375,14.062375 11.362375,11.258875 L11.312875,11.27575 C6.977125,12.78775 5.42125,15.794875 5.282875,16.07725 C6.585625,17.095375 8.22475,17.70175 10.001125,17.70175 C11.0665,17.70175 12.082375,17.4835 13.004875,17.08975 M17.5915,11.234125 C17.32825,11.150875 15.212125,10.51975 12.8035,10.9045 C13.80925,13.668625 14.21875,15.918625 14.2975,16.3855 C16.022125,15.22 17.2495,13.37275 17.59375,11.233 M10,19 C5.03875,19 1,14.96125 1,10 C1,5.0365 5.03875,1 10,1 C14.9635,1 19,5.0365 19,10 C19,14.96125 14.9635,19 10,19" id="dribbble-shape" fill="#000000" fill-rule="nonzero"/>
        </g>
    </g>
</svg>