<svg width="20px" height="20px" viewBox="0 0 20 20" version="1.1" xmlns="http://www.w3.org/2000/svg" xmlns:xlink="http://www.w3.org/1999/xlink">
    <g id="instagram-icon" stroke="none" stroke-width="1" fill="none" fill-rule="evenodd">
        <g>
            <rect id="Rectangle-Copy" fill-opacity="0" fill="#D8D8D8" x="0" y="0" width="20" height="20"/>
            <g class="social-icon-color" id="instagram-shape" fill="#000000" fill-rule="nonzero">
                <path class="social-icon-color" d="M9.98019802,1.8019802 C12.6455446,1.8019802 12.9584158,1.81386139 14.0118812,1.86138614 C14.9861386,1.9049505 15.5128713,2.06732673 15.8653465,2.20594059 C16.3326733,2.38811881 16.6653465,2.6019802 17.0138614,2.95049505 C17.3623762,3.2990099 17.580198,3.63168317 17.7584158,4.0990099 C17.8930693,4.45148515 18.0594059,4.97821782 18.1029703,5.95247525 C18.150495,7.00594059 18.1623762,7.31881188 18.1623762,9.98415842 C18.1623762,12.649505 18.150495,12.9623762 18.1029703,14.0158416 C18.0594059,14.990099 17.8970297,15.5168317 17.7584158,15.8693069 C17.5762376,16.3366337 17.3623762,16.6693069 17.0138614,17.0178218 C16.6653465,17.3663366 16.3326733,17.5841584 15.8653465,17.7623762 C15.5128713,17.8970297 14.9861386,18.0633663 14.0118812,18.1069307 C12.9584158,18.1544554 12.6455446,18.1663366 9.98019802,18.1663366 C7.31485149,18.1663366 7.0019802,18.1544554 5.94851485,18.1069307 C4.97425743,18.0633663 4.44752475,17.9009901 4.0950495,17.7623762 C3.62772277,17.580198 3.2950495,17.3663366 2.94653465,17.0178218 C2.5980198,16.6693069 2.38019802,16.3366337 2.2019802,15.8693069 C2.06732673,15.5168317 1.9009901,14.990099 1.85742574,14.0158416 C1.80990099,12.9623762 1.7980198,12.649505 1.7980198,9.98415842 C1.7980198,7.31881188 1.80990099,7.00594059 1.85742574,5.95247525 C1.9009901,4.97821782 2.06336634,4.45148515 2.2019802,4.0990099 C2.38415842,3.63168317 2.5980198,3.2990099 2.94653465,2.95049505 C3.2950495,2.6019802 3.62772277,2.38415842 4.0950495,2.20594059 C4.44752475,2.07128713 4.97425743,1.9049505 5.94851485,1.86138614 C7.0019802,1.80990099 7.31485149,1.8019802 9.98019802,1.8019802 Z M9.98019802,0.00396039604 C7.27128713,0.00396039604 6.93069307,0.0158415842 5.86534653,0.0633663366 C4.8039604,0.110891089 4.07920792,0.281188119 3.44554455,0.526732673 C2.78811881,0.78019802 2.23366337,1.12475248 1.67920792,1.67920792 C1.12475248,2.23366337 0.784158416,2.79207921 0.526732673,3.44554455 C0.281188119,4.07920792 0.110891089,4.8039604 0.0633663366,5.86930693 C0.0158415842,6.93069307 0.00396039604,7.27128713 0.00396039604,9.98019802 C0.00396039604,12.6891089 0.0158415842,13.029703 0.0633663366,14.0950495 C0.110891089,15.1564356 0.281188119,15.8811881 0.526732673,16.5188119 C0.78019802,17.1762376 1.12475248,17.7306931 1.67920792,18.2851485 C2.23366337,18.839604 2.79207921,19.180198 3.44554455,19.4376238 C4.07920792,19.6831683 4.8039604,19.8534653 5.86930693,19.9009901 C6.93465347,19.9485149 7.27128713,19.960396 9.98415842,19.960396 C12.6970297,19.960396 13.0336634,19.9485149 14.0990099,19.9009901 C15.160396,19.8534653 15.8851485,19.6831683 16.5227723,19.4376238 C17.180198,19.1841584 17.7346535,18.839604 18.2891089,18.2851485 C18.8435644,17.7306931 19.1841584,17.1722772 19.4415842,16.5188119 C19.6871287,15.8851485 19.8574257,15.160396 19.9049505,14.0950495 C19.9524752,13.029703 19.9643564,12.6930693 19.9643564,9.98019802 C19.9643564,7.26732673 19.9524752,6.93069307 19.9049505,5.86534653 C19.8574257,4.8039604 19.6871287,4.07920792 19.4415842,3.44158416 C19.1881188,2.78415842 18.8435644,2.22970297 18.2891089,1.67524752 C17.7346535,1.12079208 17.1762376,0.78019802 16.5227723,0.522772277 C15.8891089,0.277227723 15.1643564,0.106930693 14.0990099,0.0594059406 C13.029703,0.0158415842 12.6891089,0.00396039604 9.98019802,0.00396039604 Z" id="Shape"/>
                <path d="M9.98019802,4.85544554 C7.15247525,4.85544554 4.85544554,7.14851485 4.85544554,9.98019802 C4.85544554,12.8118812 7.15247525,15.1049505 9.98019802,15.1049505 C12.8079208,15.1049505 15.1049505,12.8079208 15.1049505,9.98019802 C15.1049505,7.15247525 12.8079208,4.85544554 9.98019802,4.85544554 Z M9.98019802,13.3069307 C8.14257426,13.3069307 6.65346535,11.8178218 6.65346535,9.98019802 C6.65346535,8.14257426 8.14257426,6.65346535 9.98019802,6.65346535 C11.8178218,6.65346535 13.3069307,8.14257426 13.3069307,9.98019802 C13.3069307,11.8178218 11.8178218,13.3069307 9.98019802,13.3069307 Z" id="Shape"/>
                <circle id="Oval" cx="15.3069307" cy="4.65346535" r="1.1960396"/>
            </g>
        </g>
    </g>
</svg>