<svg width="194" height="161" viewBox="0 0 194 161" fill="none" xmlns="http://www.w3.org/2000/svg">
                                        <path d="M187.299 20.0608H0.0799561V139.964H187.299V20.0608Z" fill="#E6E6E6" />
                                        <path d="M181.946 35.0999H5.43347V132.871H181.946V35.0999Z" fill="white" />
                                        <path d="M187.219 19.9548H0V27.9086H187.219V19.9548Z" fill="#6C63FF" />
                                        <path d="M5.91057 25.4952C6.72473 25.4952 7.38474 24.8352 7.38474 24.021C7.38474 23.2069 6.72473 22.5469 5.91057 22.5469C5.09641 22.5469 4.4364 23.2069 4.4364 24.021C4.4364 24.8352 5.09641 25.4952 5.91057 25.4952Z" fill="white" />
                                        <path d="M11.5062 25.4952C12.3203 25.4952 12.9803 24.8352 12.9803 24.021C12.9803 23.2069 12.3203 22.5469 11.5062 22.5469C10.692 22.5469 10.032 23.2069 10.032 24.021C10.032 24.8352 10.692 25.4952 11.5062 25.4952Z" fill="white" />
                                        <path d="M17.1019 25.4952C17.916 25.4952 18.576 24.8352 18.576 24.021C18.576 23.2069 17.916 22.5469 17.1019 22.5469C16.2877 22.5469 15.6277 23.2069 15.6277 24.021C15.6277 24.8352 16.2877 25.4952 17.1019 25.4952Z" fill="white" />
                                        <path d="M66.8273 45.2444H21.4719V122.726H66.8273V45.2444Z" fill="#FFD362" />
                                        <path d="M112.453 45.2444H74.6565V66.5722H112.453V45.2444Z" fill="#6C63FF" />
                                        <path d="M112.453 72.5115H74.6565V95.4591H112.453V72.5115Z" fill="#E6E6E6" />
                                        <path d="M112.453 101.398H74.6565V122.726H112.453V101.398Z" fill="#FFD362" />
                                        <path d="M165.907 45.2444H120.552V79.0106H165.907V45.2444Z" fill="#E6E6E6" />
                                        <path d="M165.907 88.9602H120.552V122.726H165.907V88.9602Z" fill="#6C63FF" />
                                        <path d="M93.9441 54.8854L93.3521 54.7281L106.272 6.12378H181.216V6.73615H106.743L93.9441 54.8854Z" fill="#3F3D56" />
                                        <path d="M187.34 12.8597C186.068 12.8597 184.825 12.4826 183.768 11.7761C182.71 11.0696 181.886 10.0653 181.4 8.89045C180.913 7.71555 180.786 6.42272 181.034 5.17545C181.282 3.92818 181.894 2.78249 182.793 1.88326C183.693 0.98403 184.838 0.371647 186.086 0.12355C187.333 -0.124547 188.626 0.00278681 189.801 0.489447C190.976 0.976107 191.98 1.80023 192.686 2.85762C193.393 3.915 193.77 5.15815 193.77 6.42985C193.768 8.13456 193.09 9.76889 191.884 10.9743C190.679 12.1797 189.045 12.8578 187.34 12.8597ZM187.34 0.612371C186.189 0.61237 185.065 0.953558 184.108 1.59279C183.151 2.23202 182.406 3.14059 181.965 4.2036C181.525 5.26661 181.41 6.43631 181.634 7.56479C181.859 8.69327 182.413 9.72985 183.226 10.5434C184.04 11.357 185.077 11.9111 186.205 12.1356C187.334 12.36 188.503 12.2448 189.566 11.8045C190.629 11.3642 191.538 10.6186 192.177 9.66187C192.816 8.70519 193.157 7.58044 193.157 6.42985C193.156 4.8875 192.542 3.40882 191.452 2.31821C190.361 1.2276 188.882 0.614122 187.34 0.612371Z" fill="#3F3D56" />
                                        <path d="M187.34 8.8794C188.693 8.8794 189.789 7.78273 189.789 6.42993C189.789 5.07713 188.693 3.98047 187.34 3.98047C185.987 3.98047 184.89 5.07713 184.89 6.42993C184.89 7.78273 185.987 8.8794 187.34 8.8794Z" fill="#6C63FF" />
                                        <path d="M131.238 154.316H56.2935V153.704H130.767L143.566 105.554L144.158 105.712L131.238 154.316Z" fill="#3F3D56" />
                                        <path d="M50.1698 160.44C48.8981 160.44 47.655 160.063 46.5976 159.356C45.5402 158.65 44.7161 157.646 44.2294 156.471C43.7428 155.296 43.6154 154.003 43.8635 152.756C44.1116 151.508 44.724 150.363 45.6232 149.464C46.5225 148.564 47.6682 147.952 48.9154 147.704C50.1627 147.456 51.4555 147.583 52.6304 148.07C53.8053 148.556 54.8095 149.381 55.5161 150.438C56.2226 151.495 56.5997 152.738 56.5997 154.01C56.5978 155.715 55.9197 157.349 54.7143 158.555C53.5089 159.76 51.8746 160.438 50.1698 160.44ZM50.1698 148.193C49.0193 148.193 47.8945 148.534 46.9378 149.173C45.9811 149.812 45.2355 150.721 44.7952 151.784C44.3549 152.847 44.2397 154.017 44.4641 155.145C44.6886 156.274 45.2427 157.31 46.0563 158.124C46.8698 158.937 47.9064 159.491 49.0349 159.716C50.1634 159.94 51.3331 159.825 52.3961 159.385C53.4591 158.945 54.3677 158.199 55.0069 157.242C55.6461 156.286 55.9873 155.161 55.9873 154.01C55.9856 152.468 55.3721 150.989 54.2815 149.899C53.1909 148.808 51.7122 148.194 50.1698 148.193Z" fill="#3F3D56" />
                                        <path d="M50.1699 156.459C51.5227 156.459 52.6194 155.363 52.6194 154.01C52.6194 152.657 51.5227 151.561 50.1699 151.561C48.8171 151.561 47.7205 152.657 47.7205 154.01C47.7205 155.363 48.8171 156.459 50.1699 156.459Z" fill="#6C63FF" />
                                    </svg>