<svg height='161' width='80' viewBox="0 0 80 161" fill="none" xmlns="http://www.w3.org/2000/svg">
    <path d="M80 38.1267H79.1185V13.9771C79.1185 12.1416 78.7569 10.3241 78.0545 8.62832C77.3521 6.93254 76.3226 5.39171 75.0247 4.09381C73.7268 2.79592 72.186 1.76636 70.4902 1.06395C68.7944 0.361529 66.9769 0 65.1413 0H13.9771C12.1416 -4.31243e-06 10.3241 0.36152 8.62833 1.06393C6.93255 1.76635 5.39172 2.79589 4.09382 4.09379C2.79592 5.39168 1.76637 6.9325 1.06395 8.62828C0.361531 10.3241 3.52839e-06 12.1416 0 13.9771V146.464C-2.35224e-06 148.299 0.361518 150.117 1.06393 151.813C1.76635 153.508 2.7959 155.049 4.0938 156.347C5.39169 157.645 6.93251 158.674 8.62829 159.377C10.3241 160.079 12.1416 160.441 13.9771 160.441H65.1413C66.9768 160.441 68.7943 160.079 70.4901 159.377C72.1859 158.675 73.7267 157.645 75.0246 156.347C76.3225 155.049 77.3521 153.508 78.0545 151.813C78.7569 150.117 79.1184 148.299 79.1184 146.464V55.3168H80V38.1267Z" fill="#3F3D56" />
    <path d="M76.1435 14.073V146.367C76.1435 147.738 75.8735 149.095 75.3488 150.361C74.8241 151.628 74.0551 152.778 73.0856 153.747C72.1162 154.716 70.9653 155.485 69.6987 156.009C68.4321 156.534 67.0747 156.803 65.7039 156.803H14.2934C12.9229 156.803 11.5659 156.533 10.2997 156.008C9.0335 155.484 7.88302 154.715 6.91394 153.746C5.94486 152.777 5.17615 151.627 4.65173 150.361C4.12731 149.094 3.85745 147.737 3.85754 146.367V14.073C3.85745 12.7025 4.12731 11.3455 4.65173 10.0793C5.17615 8.81311 5.94486 7.66263 6.91394 6.69355C7.88302 5.72448 9.0335 4.95579 10.2997 4.43138C11.5659 3.90697 12.9229 3.6371 14.2934 3.63721H20.5323C20.2261 4.39023 20.1096 5.20697 20.193 6.01558C20.2765 6.8242 20.5574 7.59992 21.0109 8.27453C21.4645 8.94913 22.0769 9.50195 22.7943 9.88436C23.5116 10.2668 24.3119 10.467 25.1248 10.4676H54.4355C55.2488 10.4684 56.0499 10.2689 56.768 9.88687C57.4861 9.50483 58.0991 8.95192 58.553 8.27693C59.0068 7.60194 59.2876 6.82561 59.3704 6.01646C59.4533 5.2073 59.3357 4.39018 59.0281 3.63721H65.7039C67.0747 3.63671 68.4321 3.90628 69.6987 4.4305C70.9653 4.95473 72.1162 5.72335 73.0856 6.69245C74.0551 7.66156 74.8241 8.81216 75.3488 10.0785C75.8735 11.3449 76.1435 12.7023 76.1435 14.073Z" fill="white" />
    <path d="M60.1515 82.82H14.9633C14.1718 82.8191 13.4129 82.5042 12.8533 81.9446C12.2936 81.3849 11.9788 80.6261 11.9779 79.8346V78.3486C11.9788 77.5571 12.2936 76.7983 12.8533 76.2387C13.4129 75.679 14.1718 75.3642 14.9633 75.3633H60.1515C60.943 75.3642 61.7018 75.679 62.2615 76.2387C62.8212 76.7983 63.136 77.5571 63.1369 78.3486V79.8346C63.136 80.6261 62.8212 81.3849 62.2615 81.9446C61.7018 82.5042 60.943 82.8191 60.1515 82.82Z" fill="#F0F0F0" />
    <path d="M60.1515 95.6293H14.9633C14.1718 95.6284 13.4129 95.3136 12.8533 94.7539C12.2936 94.1942 11.9788 93.4354 11.9779 92.6439V91.158C11.9788 90.3665 12.2936 89.6076 12.8533 89.048C13.4129 88.4883 14.1718 88.1735 14.9633 88.1726H60.1515C60.943 88.1735 61.7018 88.4883 62.2615 89.048C62.8212 89.6076 63.136 90.3665 63.1369 91.158V92.6439C63.136 93.4354 62.8212 94.1942 62.2615 94.7539C61.7018 95.3136 60.943 95.6284 60.1515 95.6293Z" fill="#F0F0F0" />
    <path d="M62.4127 79.9552H17.2243C16.3933 79.9542 15.5965 79.6237 15.0089 79.036C14.4212 78.4484 14.0907 77.6516 14.0897 76.8205V75.3346C14.0907 74.5035 14.4212 73.7068 15.0089 73.1191C15.5965 72.5315 16.3933 72.2009 17.2243 72.2H62.4127C63.2437 72.2009 64.0405 72.5315 64.6281 73.1191C65.2158 73.7068 65.5463 74.5035 65.5473 75.3346V76.8205C65.5463 77.6516 65.2158 78.4484 64.6281 79.036C64.0405 79.6237 63.2437 79.9542 62.4127 79.9552ZM17.2243 72.797C16.5516 72.7978 15.9066 73.0654 15.4309 73.5411C14.9551 74.0168 14.6875 74.6618 14.6868 75.3346V76.8205C14.6875 77.4933 14.9551 78.1383 15.4309 78.614C15.9066 79.0898 16.5516 79.3573 17.2243 79.3581H62.4127C63.0854 79.3573 63.7304 79.0898 64.2061 78.614C64.6819 78.1383 64.9495 77.4933 64.9502 76.8205V75.3346C64.9495 74.6618 64.6819 74.0168 64.2061 73.5411C63.7304 73.0654 63.0854 72.7978 62.4127 72.797H17.2243Z" fill="#3F3D56" />
    <path d="M62.4127 92.7645H17.2243C16.3933 92.7635 15.5965 92.433 15.0089 91.8453C14.4212 91.2577 14.0907 90.4609 14.0897 89.6299V88.1439C14.0907 87.3128 14.4212 86.5161 15.0089 85.9284C15.5965 85.3408 16.3933 85.0102 17.2243 85.0093H62.4127C63.2437 85.0102 64.0405 85.3408 64.6281 85.9284C65.2158 86.5161 65.5463 87.3128 65.5473 88.1439V89.6299C65.5463 90.4609 65.2158 91.2577 64.6281 91.8453C64.0405 92.433 63.2437 92.7635 62.4127 92.7645ZM17.2243 85.6063C16.5516 85.6071 15.9066 85.8747 15.4309 86.3504C14.9551 86.8261 14.6875 87.4711 14.6868 88.1439V89.6299C14.6875 90.3026 14.9551 90.9476 15.4309 91.4234C15.9066 91.8991 16.5516 92.1667 17.2243 92.1674H62.4127C63.0854 92.1667 63.7304 91.8991 64.2061 91.4234C64.6819 90.9476 64.9495 90.3026 64.9502 89.6299V88.1439C64.9495 87.4711 64.6819 86.8261 64.2061 86.3504C63.7304 85.8747 63.0854 85.6071 62.4127 85.6063H17.2243Z" fill="#3F3D56" />
    <path d="M76.1433 14.073V42.8487C71.5709 44.0517 66.7836 44.1897 62.1495 43.2522C57.5155 42.3146 53.1583 40.3266 49.4131 37.4409C45.6679 34.5553 42.6346 30.8489 40.5466 26.6071C38.4585 22.3652 37.3714 17.7009 37.3688 12.9729C37.3688 12.129 37.4027 11.2939 37.4705 10.4676H54.4352C55.2486 10.4684 56.0497 10.2689 56.7678 9.88687C57.4858 9.50482 58.0989 8.95191 58.5527 8.27692C59.0066 7.60193 59.2873 6.82561 59.3702 6.01646C59.4531 5.2073 59.3355 4.39018 59.0279 3.63721H65.7037C67.0745 3.63671 68.4319 3.90628 69.6985 4.4305C70.965 4.95473 72.1159 5.72335 73.0854 6.69245C74.0548 7.66156 74.8239 8.81216 75.3485 10.0785C75.8732 11.3449 76.1433 12.7023 76.1433 14.073Z" fill="#6052FF" />
    <path d="M29.8341 155.006C29.8341 155.612 29.8115 156.211 29.7626 156.803H14.2934C12.9229 156.803 11.5659 156.533 10.2997 156.008C9.0335 155.484 7.88302 154.715 6.91394 153.746C5.94486 152.777 5.17615 151.627 4.65173 150.361C4.12731 149.094 3.85745 147.737 3.85754 146.367V132.216C7.10009 131.795 10.3953 132.069 13.5235 133.021C16.6517 133.973 19.5411 135.58 21.9992 137.737C24.4572 139.893 26.4273 142.549 27.7783 145.527C29.1293 148.504 29.8302 151.736 29.8341 155.006H29.8341Z" fill="#FFB800" />
    <path d="M47.3412 111.076H25.8878C25.0963 111.075 24.3375 110.76 23.7778 110.2C23.2182 109.641 22.9034 108.882 22.9025 108.09V106.604C22.9034 105.813 23.2182 105.054 23.7778 104.495C24.3375 103.935 25.0963 103.62 25.8878 103.619H47.3412C48.1327 103.62 48.8915 103.935 49.4512 104.495C50.0108 105.054 50.3256 105.813 50.3265 106.604V108.09C50.3256 108.882 50.0108 109.641 49.4512 110.2C48.8915 110.76 48.1327 111.075 47.3412 111.076Z" fill="#FFB800" />
    <path d="M49.6023 108.211H28.1489C27.3178 108.21 26.5211 107.88 25.9334 107.292C25.3458 106.704 25.0152 105.907 25.0143 105.076V103.59C25.0152 102.759 25.3458 101.963 25.9334 101.375C26.5211 100.787 27.3178 100.457 28.1489 100.456H49.6023C50.4334 100.457 51.2301 100.787 51.8178 101.375C52.4054 101.963 52.736 102.759 52.7369 103.59V105.076C52.736 105.907 52.4054 106.704 51.8178 107.292C51.2301 107.88 50.4334 108.21 49.6023 108.211ZM28.1489 101.053C27.4761 101.054 26.8311 101.321 26.3554 101.797C25.8797 102.273 25.6121 102.918 25.6114 103.59V105.076C25.6121 105.749 25.8797 106.394 26.3554 106.87C26.8311 107.346 27.4761 107.613 28.1489 107.614H49.6023C50.2751 107.613 50.9201 107.346 51.3958 106.87C51.8715 106.394 52.1391 105.749 52.1399 105.076V103.59C52.1391 102.918 51.8715 102.273 51.3958 101.797C50.9201 101.321 50.2751 101.054 49.6023 101.053H28.1489Z" fill="#3F3D56" />
</svg>