<svg width="249" height="161" viewBox="0 0 249 161" fill="none" xmlns="http://www.w3.org/2000/svg">
                                        <path d="M242.782 160.44H6.17744C4.5623 160.438 3.01384 159.796 1.87177 158.654C0.729692 157.512 0.0872746 155.963 0.0854492 154.348V8.45267C0.0867655 7.2694 0.55739 6.13497 1.39407 5.29825C2.23075 4.46154 3.36517 3.99087 4.54844 3.9895H244.334C245.538 3.99087 246.692 4.46967 247.543 5.32085C248.394 6.17203 248.873 7.32609 248.874 8.52983V154.348C248.872 155.963 248.23 157.512 247.088 158.654C245.946 159.796 244.397 160.438 242.782 160.44Z" fill="#FFD362" />
                                        <path d="M235.132 152.749H14.6227C11.3902 152.749 8.7605 150.286 8.7605 147.259V20.2116C8.7605 17.9668 10.7092 16.1404 13.1045 16.1404H236.578C239.013 16.1404 240.994 17.9969 240.994 20.2787V147.259C240.994 150.286 238.365 152.749 235.132 152.749Z" fill="white" />
                                        <path d="M248.789 9.21189H0V6.11037C0.00234214 4.48986 0.647382 2.93646 1.79361 1.79094C2.93983 0.645424 4.49363 0.0013437 6.11414 0H242.675C244.296 0.00133003 245.85 0.645405 246.996 1.79093C248.142 2.93645 248.787 4.48986 248.789 6.11037V9.21189Z" fill="#3F3D56" />
                                        <path d="M11.1114 6.19667C11.9848 6.19667 12.6929 5.48861 12.6929 4.61518C12.6929 3.74175 11.9848 3.03369 11.1114 3.03369C10.238 3.03369 9.52991 3.74175 9.52991 4.61518C9.52991 5.48861 10.238 6.19667 11.1114 6.19667Z" fill="white" />
                                        <path d="M17.1144 6.19667C17.9879 6.19667 18.6959 5.48861 18.6959 4.61518C18.6959 3.74175 17.9879 3.03369 17.1144 3.03369C16.241 3.03369 15.533 3.74175 15.533 4.61518C15.533 5.48861 16.241 6.19667 17.1144 6.19667Z" fill="white" />
                                        <path d="M23.1174 6.19667C23.9908 6.19667 24.6989 5.48861 24.6989 4.61518C24.6989 3.74175 23.9908 3.03369 23.1174 3.03369C22.2439 3.03369 21.5359 3.74175 21.5359 4.61518C21.5359 5.48861 22.2439 6.19667 23.1174 6.19667Z" fill="white" />
                                        <path d="M119.646 43.9194H76.5192C75.8763 43.9194 75.2597 43.664 74.805 43.2093C74.3504 42.7547 74.095 42.1381 74.095 41.4951C74.095 40.8521 74.3504 40.2355 74.805 39.7809C75.2597 39.3262 75.8763 39.0708 76.5192 39.0708H119.646C120.289 39.0708 120.906 39.3262 121.36 39.7809C121.815 40.2355 122.07 40.8521 122.07 41.4951C122.07 42.1381 121.815 42.7547 121.36 43.2093C120.906 43.664 120.289 43.9194 119.646 43.9194Z" fill="#CCCCCC" />
                                        <path d="M173.236 43.9194H130.109C129.466 43.9194 128.849 43.664 128.395 43.2093C127.94 42.7547 127.685 42.1381 127.685 41.4951C127.685 40.8521 127.94 40.2355 128.395 39.7809C128.849 39.3262 129.466 39.0708 130.109 39.0708H173.236C173.879 39.0708 174.495 39.3262 174.95 39.7809C175.405 40.2355 175.66 40.8521 175.66 41.4951C175.66 42.1381 175.405 42.7547 174.95 43.2093C174.495 43.664 173.879 43.9194 173.236 43.9194Z" fill="#CCCCCC" />
                                        <path d="M173.236 53.1061H98.2103C97.5674 53.1061 96.9507 52.8507 96.4961 52.3961C96.0414 51.9414 95.786 51.3248 95.786 50.6819C95.786 50.0389 96.0414 49.4223 96.4961 48.9676C96.9507 48.513 97.5674 48.2576 98.2103 48.2576H173.236C173.879 48.2576 174.495 48.513 174.95 48.9676C175.405 49.4223 175.66 50.0389 175.66 50.6819C175.66 51.3248 175.405 51.9414 174.95 52.3961C174.495 52.8507 173.879 53.1061 173.236 53.1061Z" fill="#CCCCCC" />
                                        <path d="M119.646 34.6049H76.5192C75.8768 34.6041 75.2609 34.3484 74.8069 33.8938C74.3529 33.4393 74.0979 32.8231 74.0979 32.1806C74.0979 31.5382 74.3529 30.922 74.8069 30.4675C75.2609 30.0129 75.8768 29.7571 76.5192 29.7563H119.646C119.965 29.756 120.28 29.8184 120.575 29.94C120.869 30.0617 121.137 30.2402 121.362 30.4653C121.588 30.6905 121.767 30.9579 121.889 31.2522C122.011 31.5465 122.073 31.862 122.073 32.1806C122.073 32.4993 122.011 32.8147 121.889 33.1091C121.767 33.4034 121.588 33.6708 121.362 33.8959C121.137 34.1211 120.869 34.2996 120.575 34.4213C120.28 34.5429 119.965 34.6053 119.646 34.6049Z" fill="#CCCCCC" />
                                        <path d="M143.379 34.7326H131.13C130.487 34.7326 129.87 34.4772 129.415 34.0226C128.961 33.5679 128.705 32.9513 128.705 32.3083C128.705 31.6654 128.961 31.0487 129.415 30.5941C129.87 30.1394 130.487 29.884 131.13 29.884H143.379C144.022 29.884 144.638 30.1394 145.093 30.5941C145.548 31.0487 145.803 31.6654 145.803 32.3083C145.803 32.9513 145.548 33.5679 145.093 34.0226C144.638 34.4772 144.022 34.7326 143.379 34.7326Z" fill="#CCCCCC" />
                                        <path d="M88.7683 53.1062H76.5192C75.8768 53.1054 75.2609 52.8496 74.8069 52.395C74.3529 51.9405 74.0979 51.3243 74.0979 50.6819C74.0979 50.0394 74.3529 49.4232 74.8069 48.9687C75.2609 48.5141 75.8768 48.2584 76.5192 48.2576H88.7683C89.0869 48.2572 89.4024 48.3196 89.6969 48.4413C89.9914 48.5629 90.259 48.7414 90.4844 48.9666C90.7099 49.1917 90.8887 49.4591 91.0107 49.7534C91.1327 50.0478 91.1956 50.3632 91.1956 50.6819C91.1956 51.0005 91.1327 51.316 91.0107 51.6103C90.8887 51.9046 90.7099 52.172 90.4844 52.3971C90.259 52.6223 89.9914 52.8008 89.6969 52.9225C89.4024 53.0441 89.0869 53.1065 88.7683 53.1062Z" fill="#CCCCCC" />
                                        <path d="M119.646 129.946H76.5192C75.8763 129.946 75.2597 129.69 74.805 129.235C74.3504 128.781 74.095 128.164 74.095 127.521C74.095 126.878 74.3504 126.262 74.805 125.807C75.2597 125.352 75.8763 125.097 76.5192 125.097H119.646C119.965 125.097 120.28 125.16 120.574 125.281C120.868 125.403 121.135 125.582 121.36 125.807C121.585 126.032 121.764 126.299 121.886 126.593C122.008 126.888 122.07 127.203 122.07 127.521C122.07 127.84 122.008 128.155 121.886 128.449C121.764 128.743 121.585 129.01 121.36 129.235C121.135 129.461 120.868 129.639 120.574 129.761C120.28 129.883 119.965 129.946 119.646 129.946Z" fill="#CCCCCC" />
                                        <path d="M173.236 129.946H130.109C129.466 129.946 128.849 129.69 128.395 129.235C127.94 128.781 127.685 128.164 127.685 127.521C127.685 126.878 127.94 126.262 128.395 125.807C128.849 125.352 129.466 125.097 130.109 125.097H173.236C173.554 125.097 173.869 125.16 174.163 125.281C174.458 125.403 174.725 125.582 174.95 125.807C175.175 126.032 175.354 126.299 175.476 126.593C175.597 126.888 175.66 127.203 175.66 127.521C175.66 127.84 175.597 128.155 175.476 128.449C175.354 128.743 175.175 129.01 174.95 129.235C174.725 129.461 174.458 129.639 174.163 129.761C173.869 129.883 173.554 129.946 173.236 129.946Z" fill="#CCCCCC" />
                                        <path d="M173.236 139.132H98.2103C97.5674 139.132 96.9507 138.877 96.4961 138.422C96.0414 137.968 95.786 137.351 95.786 136.708C95.786 136.065 96.0414 135.448 96.4961 134.994C96.9507 134.539 97.5674 134.284 98.2103 134.284H173.236C173.554 134.283 173.87 134.346 174.164 134.467C174.459 134.589 174.727 134.768 174.952 134.993C175.177 135.218 175.356 135.485 175.478 135.78C175.6 136.074 175.663 136.389 175.663 136.708C175.663 137.027 175.6 137.342 175.478 137.636C175.356 137.931 175.177 138.198 174.952 138.423C174.727 138.648 174.459 138.827 174.164 138.949C173.87 139.07 173.554 139.133 173.236 139.132Z" fill="#CCCCCC" />
                                        <path d="M119.646 120.631H76.5192C75.8763 120.631 75.2597 120.376 74.805 119.921C74.3504 119.467 74.095 118.85 74.095 118.207C74.095 117.564 74.3504 116.947 74.805 116.493C75.2597 116.038 75.8763 115.783 76.5192 115.783H119.646C120.289 115.783 120.906 116.038 121.36 116.493C121.815 116.947 122.07 117.564 122.07 118.207C122.07 118.85 121.815 119.467 121.36 119.921C120.906 120.376 120.289 120.631 119.646 120.631Z" fill="#CCCCCC" />
                                        <path d="M143.379 120.759H131.13C130.487 120.759 129.87 120.503 129.415 120.049C128.961 119.594 128.705 118.977 128.705 118.334C128.705 117.691 128.961 117.075 129.415 116.62C129.87 116.166 130.487 115.91 131.13 115.91H143.379C144.022 115.91 144.638 116.166 145.093 116.62C145.548 117.075 145.803 117.691 145.803 118.334C145.803 118.977 145.548 119.594 145.093 120.049C144.638 120.503 144.022 120.759 143.379 120.759Z" fill="#CCCCCC" />
                                        <path d="M88.7683 139.132H76.5192C75.8763 139.132 75.2597 138.877 74.805 138.422C74.3504 137.968 74.095 137.351 74.095 136.708C74.095 136.065 74.3504 135.448 74.805 134.994C75.2597 134.539 75.8763 134.284 76.5192 134.284H88.7683C89.0869 134.283 89.4025 134.346 89.697 134.467C89.9914 134.589 90.259 134.768 90.4845 134.993C90.7099 135.218 90.8888 135.485 91.0108 135.78C91.1328 136.074 91.1956 136.389 91.1956 136.708C91.1956 137.027 91.1328 137.342 91.0108 137.636C90.8888 137.931 90.7099 138.198 90.4845 138.423C90.259 138.648 89.9914 138.827 89.697 138.949C89.4025 139.07 89.0869 139.133 88.7683 139.132Z" fill="#CCCCCC" />
                                        <path d="M108.383 103.919C107.468 103.921 106.589 103.561 105.937 102.918L89.7258 86.9095C89.4075 86.5952 89.1548 86.2209 88.9823 85.8082C88.8099 85.3955 88.7211 84.9526 88.7211 84.5054C88.7211 84.0581 88.8099 83.6152 88.9823 83.2025C89.1548 82.7898 89.4075 82.4155 89.7258 82.1012L105.872 66.157C106.544 65.496 107.451 65.1269 108.394 65.1299C109.337 65.1329 110.241 65.5076 110.909 66.1729C111.578 66.8435 111.954 67.7522 111.954 68.6995C111.954 69.6469 111.578 70.5555 110.909 71.2262L98.9113 83.2243C98.5375 83.599 98.3276 84.1066 98.3276 84.6359C98.3276 85.1651 98.5375 85.6728 98.9113 86.0475L110.844 97.9804C111.331 98.4668 111.663 99.0868 111.798 99.762C111.933 100.437 111.864 101.137 111.6 101.773C111.336 102.409 110.89 102.952 110.317 103.334C109.745 103.716 109.071 103.92 108.383 103.919V103.919Z" fill="#6C63FF" />
                                        <path d="M134.215 103.919C133.526 103.92 132.853 103.716 132.28 103.334C131.708 102.952 131.261 102.409 130.998 101.773C130.734 101.137 130.665 100.437 130.8 99.762C130.934 99.0868 131.266 98.4668 131.753 97.9805L143.686 86.0475C144.06 85.6728 144.27 85.1652 144.27 84.6359C144.27 84.1067 144.06 83.599 143.686 83.2243L131.688 71.2262C131.357 70.8944 131.093 70.5005 130.914 70.0669C130.734 69.6334 130.642 69.1688 130.642 68.6995C130.642 68.2303 130.734 67.7656 130.914 67.3321C131.093 66.8986 131.357 66.5047 131.688 66.1729C132.357 65.5077 133.261 65.1329 134.204 65.1299C135.147 65.1269 136.053 65.496 136.726 66.157L152.872 82.1012C153.19 82.4155 153.443 82.7898 153.615 83.2025C153.788 83.6152 153.877 84.0581 153.877 84.5054C153.877 84.9527 153.788 85.3955 153.615 85.8082C153.443 86.2209 153.19 86.5953 152.872 86.9096L136.66 102.918C136.009 103.561 135.13 103.921 134.215 103.919Z" fill="#6C63FF" />
                                    </svg>